<?xml version="1.0" standalone="no"?>
<!DOCTYPE svg PUBLIC "-//W3C//DTD SVG 20010904//EN"
 "http://www.w3.org/TR/2001/REC-SVG-20010904/DTD/svg10.dtd">
<svg version="1.0" xmlns="http://www.w3.org/2000/svg"
 width="1350.000000pt" height="1350.000000pt" viewBox="0 0 1350.000000 1350.000000"
 preserveAspectRatio="xMidYMid meet">
<metadata>
Created by potrace 1.14, written by Peter Selinger 2001-2017
</metadata>
<g transform="translate(0.000000,1350.000000) scale(0.100000,-0.100000)"
fill="#000000" stroke="none">
<path d="M4495 13133 c-57 -20 -364 -142 -400 -158 -16 -8 -82 -37 -145 -65
-395 -178 -877 -463 -1205 -712 -27 -21 -63 -49 -79 -61 -403 -304 -838 -732
-1172 -1152 -43 -55 -83 -104 -87 -110 -4 -5 -29 -39 -56 -75 -474 -642 -840
-1384 -1060 -2145 -30 -104 -91 -345 -97 -385 -3 -19 -8 -38 -10 -41 -2 -3 -6
-21 -9 -40 -3 -19 -14 -77 -25 -129 -11 -52 -21 -108 -24 -125 -2 -16 -9 -57
-14 -90 -6 -33 -13 -82 -17 -110 -3 -27 -7 -61 -10 -75 -2 -14 -7 -52 -10 -85
-3 -33 -8 -78 -10 -100 -24 -215 -30 -355 -29 -685 0 -329 6 -449 30 -685 8
-77 12 -115 30 -247 6 -49 22 -153 28 -183 2 -11 7 -40 11 -65 9 -56 13 -78
20 -110 7 -33 14 -68 21 -105 3 -16 10 -48 15 -70 6 -22 14 -60 20 -84 5 -23
14 -62 20 -85 6 -22 13 -48 14 -56 2 -8 4 -15 5 -15 1 0 3 -9 5 -20 9 -47 117
-398 150 -490 20 -55 40 -111 45 -125 10 -32 106 -273 130 -325 10 -22 41 -92
70 -155 168 -375 430 -816 703 -1182 109 -147 285 -364 371 -457 23 -25 66
-72 96 -105 30 -33 112 -116 181 -185 112 -113 161 -158 353 -332 141 -127
445 -363 646 -501 277 -189 630 -386 904 -505 44 -18 94 -40 110 -47 81 -36
358 -134 426 -151 8 -3 66 -18 128 -34 118 -31 278 -67 347 -76 22 -3 65 -10
95 -15 30 -5 87 -12 126 -15 39 -3 86 -8 105 -10 47 -7 411 -7 479 0 494 45
919 178 1340 418 325 186 644 453 835 701 17 22 39 51 51 65 42 53 154 219
154 229 0 6 3 12 8 14 21 9 149 267 215 433 71 179 111 314 163 560 10 45 21
116 30 180 3 28 8 57 9 66 2 9 6 56 10 105 4 49 8 105 10 124 2 19 4 69 4 111
l1 77 93 53 c717 414 1290 1079 1603 1859 73 183 94 263 85 316 -28 149 -183
229 -317 162 -58 -28 -94 -72 -118 -140 -185 -528 -456 -955 -851 -1338 -284
-276 -665 -524 -1040 -676 -92 -37 -366 -130 -407 -138 -13 -2 -75 -16 -138
-30 -140 -31 -146 -32 -290 -50 -191 -24 -237 -27 -435 -26 -194 1 -227 3
-331 14 -114 13 -140 17 -274 41 -83 16 -87 17 -180 40 -36 8 -74 18 -84 20
-59 13 -309 101 -403 141 -137 59 -325 154 -428 218 -73 45 -216 139 -240 158
-5 4 -46 35 -90 69 -617 477 -1057 1186 -1213 1954 -26 130 -29 148 -47 285
-41 324 -14 822 62 1115 8 33 17 71 20 85 2 14 11 48 20 75 77 253 133 396
227 585 53 106 87 166 179 315 45 72 175 247 253 340 88 106 274 296 359 367
22 18 49 41 60 51 11 11 65 53 120 94 55 41 107 80 115 86 31 24 160 107 166
107 3 0 25 13 48 28 56 38 258 140 379 191 161 69 468 166 587 187 14 3 57 11
95 19 39 7 90 17 115 20 25 3 56 8 70 10 136 21 599 28 745 12 289 -31 491
-76 755 -164 374 -126 717 -317 1050 -587 86 -70 333 -313 406 -399 85 -102
217 -281 284 -389 96 -153 238 -442 304 -619 62 -169 86 -203 160 -234 118
-49 264 16 297 133 7 26 12 64 12 85 -2 34 -65 219 -114 335 -10 23 -19 44
-19 47 -5 32 -194 383 -273 510 -168 268 -459 608 -687 803 -347 297 -675 500
-1060 657 -469 191 -923 280 -1430 280 -315 -1 -557 -27 -860 -96 -149 -34
-478 -140 -583 -187 -60 -28 -67 -29 -67 -13 0 26 74 283 109 376 292 790 920
1440 1726 1785 175 76 460 166 585 186 14 2 36 7 50 10 14 3 36 8 50 10 14 2
35 6 47 9 12 3 46 8 75 10 29 3 64 8 78 10 101 16 498 24 575 11 17 -2 63 -8
103 -11 41 -4 83 -8 95 -11 12 -2 39 -6 62 -9 22 -3 83 -15 135 -26 52 -11
102 -22 110 -24 84 -17 290 -83 430 -138 129 -50 369 -171 510 -257 107 -65
371 -238 380 -249 3 -4 18 -15 35 -25 16 -11 34 -23 40 -28 5 -5 44 -34 85
-65 93 -71 335 -273 414 -345 l58 -54 -49 -70 c-121 -167 -191 -348 -228 -584
-6 -40 -7 -275 -1 -305 2 -11 6 -42 10 -70 25 -182 133 -426 263 -590 48 -61
172 -182 233 -228 224 -168 489 -259 765 -261 168 -1 296 17 414 59 24 8 45
15 46 15 1 0 15 -28 30 -62 14 -35 33 -77 41 -95 102 -228 274 -767 329 -1033
24 -115 55 -273 60 -300 3 -19 7 -46 10 -60 2 -14 6 -41 9 -60 2 -19 10 -71
16 -115 6 -44 13 -94 15 -112 3 -18 7 -63 10 -100 3 -37 8 -85 10 -105 24
-228 24 -755 0 -1024 -2 -27 -7 -76 -10 -109 -3 -33 -7 -73 -10 -90 -2 -16 -7
-52 -10 -80 -3 -27 -8 -63 -10 -80 -3 -16 -7 -48 -10 -70 -8 -59 -24 -153 -35
-205 -9 -43 -14 -67 -25 -135 -4 -23 -86 -356 -110 -445 -30 -117 -172 -528
-186 -545 -5 -5 -9 -15 -9 -22 0 -7 -8 -32 -19 -56 -10 -23 -31 -71 -46 -107
-105 -250 -249 -529 -408 -795 -156 -260 -465 -680 -651 -885 -127 -138 -172
-186 -277 -290 -285 -284 -566 -515 -899 -742 -114 -77 -404 -258 -415 -258
-2 0 -28 -14 -57 -31 -91 -54 -416 -214 -563 -277 -156 -67 -359 -144 -510
-194 -84 -27 -107 -40 -145 -78 -112 -111 -87 -290 52 -365 77 -42 131 -38
308 23 161 56 344 124 405 152 75 34 130 58 205 90 41 18 102 46 135 62 33 17
76 38 95 48 102 51 266 140 350 190 52 31 102 59 110 63 8 4 34 20 58 35 23
15 77 49 120 77 691 442 1345 1070 1832 1760 53 76 230 344 230 349 0 3 22 40
48 83 276 446 538 1060 700 1638 40 142 109 438 127 545 2 14 6 34 8 45 3 11
8 40 12 65 4 25 9 52 10 60 22 124 46 319 60 475 3 44 8 96 10 115 16 145 22
606 11 810 -11 190 -24 365 -31 399 -2 11 -7 51 -10 88 -4 37 -9 75 -10 84 -2
9 -6 40 -10 70 -3 30 -8 61 -10 69 -2 8 -7 35 -10 60 -14 100 -79 405 -121
570 -73 286 -171 589 -267 825 -55 135 -100 242 -118 276 l-18 36 42 39 c110
103 208 236 280 379 33 67 89 227 102 290 3 17 7 40 9 52 3 12 8 53 12 90 56
535 -229 1054 -711 1295 -67 34 -199 86 -238 93 -10 2 -27 7 -37 10 -10 3 -31
8 -46 10 -16 2 -59 9 -97 15 -68 10 -302 7 -367 -5 -133 -24 -270 -69 -385
-127 -52 -27 -73 -33 -81 -24 -33 33 -122 113 -224 200 -149 128 -154 132
-230 191 -36 27 -69 53 -75 57 -154 121 -502 355 -665 446 -25 14 -61 34 -80
45 -351 200 -866 374 -1250 423 -19 2 -48 6 -65 9 -32 4 -98 11 -210 21 -75 6
-367 6 -450 0 -150 -12 -205 -17 -255 -25 -30 -5 -58 -7 -62 -5 -4 2 -9 0 -13
-6 -4 -6 -10 -8 -14 -6 -4 3 -37 -1 -72 -9 -36 -7 -81 -16 -100 -19 -69 -11
-273 -67 -407 -112 -558 -188 -1066 -510 -1487 -943 -89 -91 -130 -137 -244
-276 -9 -11 -39 -52 -67 -90 -157 -215 -250 -379 -394 -690 -65 -140 -183
-530 -205 -675 -3 -14 -6 -34 -8 -45 -4 -18 -8 -39 -22 -135 -3 -14 -7 -50
-10 -80 -3 -30 -11 -58 -19 -62 -7 -4 -68 -46 -135 -94 -230 -164 -447 -359
-633 -567 -112 -126 -106 -118 -278 -347 -130 -172 -313 -512 -413 -765 -48
-123 -128 -359 -142 -419 -2 -12 -11 -48 -20 -81 -18 -71 -61 -299 -70 -370
-4 -27 -8 -59 -10 -70 -1 -11 -6 -56 -10 -100 -3 -44 -8 -100 -11 -125 -10
-105 -4 -442 11 -580 2 -25 7 -72 11 -105 27 -276 120 -636 241 -940 248 -625
688 -1204 1213 -1598 41 -31 80 -61 87 -66 14 -13 204 -138 258 -171 134 -81
406 -216 545 -270 47 -18 105 -41 130 -50 104 -41 411 -125 520 -144 19 -3 46
-8 60 -11 14 -3 41 -8 60 -11 19 -3 41 -7 47 -9 7 -2 45 -7 85 -11 40 -3 75
-8 78 -9 41 -25 713 -24 839 0 11 2 51 7 88 10 37 4 70 9 73 10 3 2 26 6 50
10 44 6 102 18 185 36 22 4 50 11 63 13 13 3 32 8 42 11 10 3 27 8 37 10 36 8
220 64 290 88 39 14 73 23 75 21 5 -4 -13 -173 -28 -259 -94 -560 -328 -1021
-709 -1393 -391 -382 -924 -641 -1495 -726 -183 -27 -537 -27 -730 0 -536 76
-1045 264 -1565 577 -158 95 -455 297 -550 374 -6 4 -55 44 -110 87 -82 65
-194 160 -251 211 -193 175 -326 305 -459 447 -105 113 -132 143 -223 253
-117 140 -112 134 -162 200 -25 33 -47 62 -51 65 -29 26 -389 575 -389 594 0
2 -21 40 -46 83 -115 193 -294 579 -399 858 -49 132 -143 411 -150 446 -2 9
-12 47 -24 85 -23 78 -77 294 -85 338 -7 38 -26 133 -40 195 -2 10 -7 36 -10
57 -4 22 -13 77 -21 124 -18 112 -23 145 -31 215 -3 32 -8 68 -10 79 -2 12 -6
57 -9 101 -4 44 -8 94 -10 110 -7 55 -18 349 -18 465 1 131 12 428 18 480 3
19 7 67 10 105 5 66 9 100 20 185 3 19 7 55 10 80 3 25 10 70 15 100 5 30 12
71 15 90 3 19 17 94 31 165 14 72 28 139 30 150 2 11 22 92 44 180 173 689
478 1369 878 1960 614 907 1435 1627 2402 2106 217 107 323 153 574 250 115
44 190 78 209 96 123 116 85 324 -72 389 -42 18 -133 16 -186 -3z m7638 -1718
c398 -59 706 -403 722 -805 13 -329 -159 -633 -446 -788 -205 -111 -444 -132
-663 -61 -307 101 -520 344 -581 664 -12 68 -13 237 0 300 90 454 516 757 968
690z"/>
<path d="M8165 8256 c-83 -41 -307 -152 -500 -246 -192 -95 -428 -210 -522
-257 -95 -46 -173 -86 -173 -88 0 -2 26 -11 58 -20 31 -9 92 -34 134 -56 228
-113 396 -308 479 -553 l23 -69 139 284 c77 156 185 379 242 494 56 116 144
293 194 393 50 101 91 186 91 188 0 10 -24 0 -165 -70z"/>
<path d="M6596 7424 c-200 -44 -373 -178 -464 -359 -40 -80 -54 -122 -66 -197
-53 -314 106 -612 396 -748 36 -17 74 -32 84 -34 11 -2 30 -7 44 -10 76 -18
190 -22 265 -11 138 21 277 95 387 205 134 136 199 305 192 505 -10 318 -223
576 -536 649 -78 18 -219 18 -302 0z"/>
<path d="M5740 6348 c-46 -95 -196 -400 -332 -677 -137 -277 -247 -505 -246
-506 3 -2 231 109 1061 518 l308 152 -68 21 c-130 41 -287 135 -379 228 -96
98 -190 252 -230 379 -10 31 -20 57 -24 57 -3 0 -44 -78 -90 -172z"/>
</g>
</svg>
